<mxfile host="app.diagrams.net" modified="2024-01-13T11:36:35.599Z" agent="Mozilla/5.0 (Macintosh; Intel Mac OS X 10_15_7) AppleWebKit/537.36 (KHTML, like Gecko) Chrome/120.0.0.0 Safari/537.36 Edg/120.0.0.0" etag="WOvwjuQTWnt66-1rBoYq" version="22.1.17" type="github">
  <diagram name="第 1 页" id="f4njisZxcb7KHx6AV2XZ">
    <mxGraphModel dx="1877" dy="676" grid="1" gridSize="10" guides="1" tooltips="1" connect="1" arrows="1" fold="1" page="1" pageScale="1" pageWidth="827" pageHeight="1169" math="0" shadow="0">
      <root>
        <mxCell id="0" />
        <mxCell id="1" parent="0" />
        <mxCell id="Wq-1Q248FEYo-H4DawHo-143" value="" style="rounded=0;whiteSpace=wrap;html=1;" vertex="1" parent="1">
          <mxGeometry x="-90" y="105" width="700" height="310" as="geometry" />
        </mxCell>
        <mxCell id="Wq-1Q248FEYo-H4DawHo-141" value="" style="rounded=0;whiteSpace=wrap;html=1;" vertex="1" parent="1">
          <mxGeometry x="-90" y="685" width="700" height="80" as="geometry" />
        </mxCell>
        <mxCell id="Wq-1Q248FEYo-H4DawHo-139" value="" style="rounded=0;whiteSpace=wrap;html=1;" vertex="1" parent="1">
          <mxGeometry x="-90" y="450" width="700" height="80" as="geometry" />
        </mxCell>
        <mxCell id="Wq-1Q248FEYo-H4DawHo-3" value="" style="rounded=0;whiteSpace=wrap;html=1;fillColor=#ffe6cc;strokeColor=#d79b00;" vertex="1" parent="1">
          <mxGeometry x="40" y="690" width="565" height="70" as="geometry" />
        </mxCell>
        <mxCell id="Wq-1Q248FEYo-H4DawHo-4" value="" style="edgeStyle=orthogonalEdgeStyle;rounded=0;orthogonalLoop=1;jettySize=auto;html=1;" edge="1" parent="1" source="Wq-1Q248FEYo-H4DawHo-5" target="Wq-1Q248FEYo-H4DawHo-6">
          <mxGeometry relative="1" as="geometry" />
        </mxCell>
        <mxCell id="Wq-1Q248FEYo-H4DawHo-5" value="T1" style="shape=cylinder3;whiteSpace=wrap;html=1;boundedLbl=1;backgroundOutline=1;size=15;" vertex="1" parent="1">
          <mxGeometry x="70" y="700" width="60" height="50" as="geometry" />
        </mxCell>
        <mxCell id="Wq-1Q248FEYo-H4DawHo-6" value="T2" style="shape=cylinder3;whiteSpace=wrap;html=1;boundedLbl=1;backgroundOutline=1;size=15;" vertex="1" parent="1">
          <mxGeometry x="160" y="700" width="60" height="50" as="geometry" />
        </mxCell>
        <mxCell id="Wq-1Q248FEYo-H4DawHo-7" value="T3" style="shape=cylinder3;whiteSpace=wrap;html=1;boundedLbl=1;backgroundOutline=1;size=15;" vertex="1" parent="1">
          <mxGeometry x="260" y="700" width="60" height="50" as="geometry" />
        </mxCell>
        <mxCell id="Wq-1Q248FEYo-H4DawHo-8" style="rounded=0;orthogonalLoop=1;jettySize=auto;html=1;entryX=0.5;entryY=1;entryDx=0;entryDy=0;edgeStyle=orthogonalEdgeStyle;curved=1;" edge="1" parent="1" source="Wq-1Q248FEYo-H4DawHo-9" target="Wq-1Q248FEYo-H4DawHo-13">
          <mxGeometry relative="1" as="geometry" />
        </mxCell>
        <mxCell id="Wq-1Q248FEYo-H4DawHo-9" value="T6" style="shape=cylinder3;whiteSpace=wrap;html=1;boundedLbl=1;backgroundOutline=1;size=15;" vertex="1" parent="1">
          <mxGeometry x="420" y="700" width="60" height="50" as="geometry" />
        </mxCell>
        <mxCell id="Wq-1Q248FEYo-H4DawHo-10" value="&lt;b&gt;......&lt;/b&gt;" style="text;strokeColor=none;align=center;fillColor=none;html=1;verticalAlign=middle;whiteSpace=wrap;rounded=0;" vertex="1" parent="1">
          <mxGeometry x="330" y="710" width="60" height="30" as="geometry" />
        </mxCell>
        <mxCell id="Wq-1Q248FEYo-H4DawHo-11" style="edgeStyle=orthogonalEdgeStyle;rounded=0;orthogonalLoop=1;jettySize=auto;html=1;" edge="1" parent="1" source="Wq-1Q248FEYo-H4DawHo-6">
          <mxGeometry relative="1" as="geometry">
            <mxPoint x="260" y="725" as="targetPoint" />
          </mxGeometry>
        </mxCell>
        <mxCell id="Wq-1Q248FEYo-H4DawHo-12" style="edgeStyle=orthogonalEdgeStyle;rounded=0;orthogonalLoop=1;jettySize=auto;html=1;entryX=0.5;entryY=1;entryDx=0;entryDy=0;curved=1;exitX=0.5;exitY=0;exitDx=0;exitDy=0;" edge="1" parent="1" source="Wq-1Q248FEYo-H4DawHo-13" target="Wq-1Q248FEYo-H4DawHo-15">
          <mxGeometry relative="1" as="geometry" />
        </mxCell>
        <mxCell id="Wq-1Q248FEYo-H4DawHo-13" value="Task Distance" style="rounded=0;whiteSpace=wrap;html=1;fillColor=#e1d5e7;strokeColor=#9673a6;" vertex="1" parent="1">
          <mxGeometry x="320" y="585" width="120" height="35" as="geometry" />
        </mxCell>
        <mxCell id="Wq-1Q248FEYo-H4DawHo-14" style="edgeStyle=orthogonalEdgeStyle;rounded=0;orthogonalLoop=1;jettySize=auto;html=1;entryX=0.5;entryY=1;entryDx=0;entryDy=0;" edge="1" parent="1" source="Wq-1Q248FEYo-H4DawHo-15" target="Wq-1Q248FEYo-H4DawHo-26">
          <mxGeometry relative="1" as="geometry" />
        </mxCell>
        <mxCell id="Wq-1Q248FEYo-H4DawHo-15" value="" style="rounded=1;whiteSpace=wrap;html=1;fillColor=#f8cecc;strokeColor=#b85450;" vertex="1" parent="1">
          <mxGeometry x="40" y="460" width="160" height="60" as="geometry" />
        </mxCell>
        <mxCell id="Wq-1Q248FEYo-H4DawHo-16" value="T1" style="shape=cylinder3;whiteSpace=wrap;html=1;boundedLbl=1;backgroundOutline=1;size=15;" vertex="1" parent="1">
          <mxGeometry x="50" y="465" width="60" height="50" as="geometry" />
        </mxCell>
        <mxCell id="Wq-1Q248FEYo-H4DawHo-17" value="T3" style="shape=cylinder3;whiteSpace=wrap;html=1;boundedLbl=1;backgroundOutline=1;size=15;" vertex="1" parent="1">
          <mxGeometry x="130" y="465" width="60" height="50" as="geometry" />
        </mxCell>
        <mxCell id="Wq-1Q248FEYo-H4DawHo-137" value="" style="edgeStyle=orthogonalEdgeStyle;rounded=0;orthogonalLoop=1;jettySize=auto;html=1;" edge="1" parent="1" source="Wq-1Q248FEYo-H4DawHo-18" target="Wq-1Q248FEYo-H4DawHo-83">
          <mxGeometry relative="1" as="geometry" />
        </mxCell>
        <mxCell id="Wq-1Q248FEYo-H4DawHo-18" value="" style="rounded=1;whiteSpace=wrap;html=1;fillColor=#dae8fc;strokeColor=#6c8ebf;" vertex="1" parent="1">
          <mxGeometry x="245" y="460" width="150" height="60" as="geometry" />
        </mxCell>
        <mxCell id="Wq-1Q248FEYo-H4DawHo-19" value="T3" style="shape=cylinder3;whiteSpace=wrap;html=1;boundedLbl=1;backgroundOutline=1;size=15;" vertex="1" parent="1">
          <mxGeometry x="250" y="465" width="60" height="50" as="geometry" />
        </mxCell>
        <mxCell id="Wq-1Q248FEYo-H4DawHo-138" value="" style="edgeStyle=orthogonalEdgeStyle;rounded=0;orthogonalLoop=1;jettySize=auto;html=1;" edge="1" parent="1" source="Wq-1Q248FEYo-H4DawHo-20" target="Wq-1Q248FEYo-H4DawHo-110">
          <mxGeometry relative="1" as="geometry" />
        </mxCell>
        <mxCell id="Wq-1Q248FEYo-H4DawHo-20" value="" style="rounded=1;whiteSpace=wrap;html=1;fillColor=#d5e8d4;strokeColor=#82b366;" vertex="1" parent="1">
          <mxGeometry x="445" y="460" width="150" height="60" as="geometry" />
        </mxCell>
        <mxCell id="Wq-1Q248FEYo-H4DawHo-21" value="T4" style="shape=cylinder3;whiteSpace=wrap;html=1;boundedLbl=1;backgroundOutline=1;size=15;" vertex="1" parent="1">
          <mxGeometry x="455" y="465" width="60" height="50" as="geometry" />
        </mxCell>
        <mxCell id="Wq-1Q248FEYo-H4DawHo-22" value="T5" style="shape=cylinder3;whiteSpace=wrap;html=1;boundedLbl=1;backgroundOutline=1;size=15;" vertex="1" parent="1">
          <mxGeometry x="530" y="465" width="60" height="50" as="geometry" />
        </mxCell>
        <mxCell id="Wq-1Q248FEYo-H4DawHo-23" style="edgeStyle=orthogonalEdgeStyle;rounded=0;orthogonalLoop=1;jettySize=auto;html=1;entryX=0.587;entryY=1.033;entryDx=0;entryDy=0;entryPerimeter=0;curved=1;" edge="1" parent="1" source="Wq-1Q248FEYo-H4DawHo-13" target="Wq-1Q248FEYo-H4DawHo-18">
          <mxGeometry relative="1" as="geometry" />
        </mxCell>
        <mxCell id="Wq-1Q248FEYo-H4DawHo-24" style="edgeStyle=orthogonalEdgeStyle;rounded=0;orthogonalLoop=1;jettySize=auto;html=1;entryX=0.567;entryY=1;entryDx=0;entryDy=0;entryPerimeter=0;curved=1;" edge="1" parent="1" source="Wq-1Q248FEYo-H4DawHo-13" target="Wq-1Q248FEYo-H4DawHo-20">
          <mxGeometry relative="1" as="geometry" />
        </mxCell>
        <mxCell id="Wq-1Q248FEYo-H4DawHo-26" value="" style="rounded=0;whiteSpace=wrap;html=1;fillColor=#f8cecc;strokeColor=#b85450;" vertex="1" parent="1">
          <mxGeometry x="40" y="120" width="160" height="280" as="geometry" />
        </mxCell>
        <mxCell id="Wq-1Q248FEYo-H4DawHo-27" style="edgeStyle=orthogonalEdgeStyle;rounded=0;orthogonalLoop=1;jettySize=auto;html=1;" edge="1" parent="1" source="Wq-1Q248FEYo-H4DawHo-28" target="Wq-1Q248FEYo-H4DawHo-41">
          <mxGeometry relative="1" as="geometry" />
        </mxCell>
        <mxCell id="Wq-1Q248FEYo-H4DawHo-28" value="" style="rounded=0;whiteSpace=wrap;html=1;fillColor=#fff2cc;strokeColor=#d6b656;" vertex="1" parent="1">
          <mxGeometry x="55" y="280" width="130" height="60" as="geometry" />
        </mxCell>
        <mxCell id="Wq-1Q248FEYo-H4DawHo-29" style="rounded=0;orthogonalLoop=1;jettySize=auto;html=1;entryX=0.5;entryY=1;entryDx=0;entryDy=0;" edge="1" parent="1" source="Wq-1Q248FEYo-H4DawHo-30" target="Wq-1Q248FEYo-H4DawHo-37">
          <mxGeometry relative="1" as="geometry" />
        </mxCell>
        <mxCell id="Wq-1Q248FEYo-H4DawHo-30" value="" style="ellipse;whiteSpace=wrap;html=1;aspect=fixed;" vertex="1" parent="1">
          <mxGeometry x="140" y="320" width="10" height="10" as="geometry" />
        </mxCell>
        <mxCell id="Wq-1Q248FEYo-H4DawHo-31" style="rounded=0;orthogonalLoop=1;jettySize=auto;html=1;entryX=0.5;entryY=1;entryDx=0;entryDy=0;" edge="1" parent="1" source="Wq-1Q248FEYo-H4DawHo-35" target="Wq-1Q248FEYo-H4DawHo-38">
          <mxGeometry relative="1" as="geometry" />
        </mxCell>
        <mxCell id="Wq-1Q248FEYo-H4DawHo-32" style="rounded=0;orthogonalLoop=1;jettySize=auto;html=1;entryX=0;entryY=1;entryDx=0;entryDy=0;" edge="1" parent="1" source="Wq-1Q248FEYo-H4DawHo-35" target="Wq-1Q248FEYo-H4DawHo-36">
          <mxGeometry relative="1" as="geometry" />
        </mxCell>
        <mxCell id="Wq-1Q248FEYo-H4DawHo-33" style="rounded=0;orthogonalLoop=1;jettySize=auto;html=1;" edge="1" parent="1" source="Wq-1Q248FEYo-H4DawHo-35">
          <mxGeometry relative="1" as="geometry">
            <mxPoint x="140" y="300" as="targetPoint" />
          </mxGeometry>
        </mxCell>
        <mxCell id="Wq-1Q248FEYo-H4DawHo-34" style="rounded=0;orthogonalLoop=1;jettySize=auto;html=1;entryX=0.5;entryY=1;entryDx=0;entryDy=0;" edge="1" parent="1" source="Wq-1Q248FEYo-H4DawHo-35" target="Wq-1Q248FEYo-H4DawHo-39">
          <mxGeometry relative="1" as="geometry" />
        </mxCell>
        <mxCell id="Wq-1Q248FEYo-H4DawHo-35" value="" style="ellipse;whiteSpace=wrap;html=1;aspect=fixed;" vertex="1" parent="1">
          <mxGeometry x="90" y="320" width="10" height="10" as="geometry" />
        </mxCell>
        <mxCell id="Wq-1Q248FEYo-H4DawHo-36" value="" style="ellipse;whiteSpace=wrap;html=1;aspect=fixed;" vertex="1" parent="1">
          <mxGeometry x="155" y="290" width="10" height="10" as="geometry" />
        </mxCell>
        <mxCell id="Wq-1Q248FEYo-H4DawHo-37" value="" style="ellipse;whiteSpace=wrap;html=1;aspect=fixed;" vertex="1" parent="1">
          <mxGeometry x="130" y="290" width="10" height="10" as="geometry" />
        </mxCell>
        <mxCell id="Wq-1Q248FEYo-H4DawHo-38" value="" style="ellipse;whiteSpace=wrap;html=1;aspect=fixed;" vertex="1" parent="1">
          <mxGeometry x="80" y="290" width="10" height="10" as="geometry" />
        </mxCell>
        <mxCell id="Wq-1Q248FEYo-H4DawHo-39" value="" style="ellipse;whiteSpace=wrap;html=1;aspect=fixed;" vertex="1" parent="1">
          <mxGeometry x="110" y="290" width="10" height="10" as="geometry" />
        </mxCell>
        <mxCell id="Wq-1Q248FEYo-H4DawHo-40" style="rounded=0;orthogonalLoop=1;jettySize=auto;html=1;entryX=0.269;entryY=0.333;entryDx=0;entryDy=0;entryPerimeter=0;" edge="1" parent="1" source="Wq-1Q248FEYo-H4DawHo-30" target="Wq-1Q248FEYo-H4DawHo-28">
          <mxGeometry relative="1" as="geometry" />
        </mxCell>
        <mxCell id="Wq-1Q248FEYo-H4DawHo-41" value="" style="rounded=0;whiteSpace=wrap;html=1;fillColor=#fff2cc;strokeColor=#d6b656;" vertex="1" parent="1">
          <mxGeometry x="55" y="150" width="130" height="60" as="geometry" />
        </mxCell>
        <mxCell id="Wq-1Q248FEYo-H4DawHo-42" value="" style="ellipse;whiteSpace=wrap;html=1;aspect=fixed;" vertex="1" parent="1">
          <mxGeometry x="75" y="160" width="10" height="10" as="geometry" />
        </mxCell>
        <mxCell id="Wq-1Q248FEYo-H4DawHo-43" value="" style="ellipse;whiteSpace=wrap;html=1;aspect=fixed;" vertex="1" parent="1">
          <mxGeometry x="100" y="160" width="10" height="10" as="geometry" />
        </mxCell>
        <mxCell id="Wq-1Q248FEYo-H4DawHo-44" value="" style="ellipse;whiteSpace=wrap;html=1;aspect=fixed;" vertex="1" parent="1">
          <mxGeometry x="130" y="160" width="10" height="10" as="geometry" />
        </mxCell>
        <mxCell id="Wq-1Q248FEYo-H4DawHo-45" value="" style="ellipse;whiteSpace=wrap;html=1;aspect=fixed;" vertex="1" parent="1">
          <mxGeometry x="155" y="160" width="10" height="10" as="geometry" />
        </mxCell>
        <mxCell id="Wq-1Q248FEYo-H4DawHo-46" style="rounded=0;orthogonalLoop=1;jettySize=auto;html=1;entryX=0.5;entryY=1;entryDx=0;entryDy=0;" edge="1" parent="1" source="Wq-1Q248FEYo-H4DawHo-49" target="Wq-1Q248FEYo-H4DawHo-45">
          <mxGeometry relative="1" as="geometry" />
        </mxCell>
        <mxCell id="Wq-1Q248FEYo-H4DawHo-47" style="rounded=0;orthogonalLoop=1;jettySize=auto;html=1;entryX=0.5;entryY=1;entryDx=0;entryDy=0;" edge="1" parent="1" source="Wq-1Q248FEYo-H4DawHo-49" target="Wq-1Q248FEYo-H4DawHo-44">
          <mxGeometry relative="1" as="geometry" />
        </mxCell>
        <mxCell id="Wq-1Q248FEYo-H4DawHo-48" style="rounded=0;orthogonalLoop=1;jettySize=auto;html=1;entryX=0.5;entryY=1;entryDx=0;entryDy=0;" edge="1" parent="1" source="Wq-1Q248FEYo-H4DawHo-49" target="Wq-1Q248FEYo-H4DawHo-42">
          <mxGeometry relative="1" as="geometry" />
        </mxCell>
        <mxCell id="Wq-1Q248FEYo-H4DawHo-49" value="" style="ellipse;whiteSpace=wrap;html=1;aspect=fixed;" vertex="1" parent="1">
          <mxGeometry x="90" y="190" width="10" height="10" as="geometry" />
        </mxCell>
        <mxCell id="Wq-1Q248FEYo-H4DawHo-50" style="rounded=0;orthogonalLoop=1;jettySize=auto;html=1;entryX=1;entryY=0.5;entryDx=0;entryDy=0;" edge="1" parent="1" source="Wq-1Q248FEYo-H4DawHo-51" target="Wq-1Q248FEYo-H4DawHo-43">
          <mxGeometry relative="1" as="geometry">
            <mxPoint x="110" y="180" as="targetPoint" />
          </mxGeometry>
        </mxCell>
        <mxCell id="Wq-1Q248FEYo-H4DawHo-51" value="" style="ellipse;whiteSpace=wrap;html=1;aspect=fixed;" vertex="1" parent="1">
          <mxGeometry x="140" y="190" width="10" height="10" as="geometry" />
        </mxCell>
        <mxCell id="Wq-1Q248FEYo-H4DawHo-52" style="rounded=0;orthogonalLoop=1;jettySize=auto;html=1;entryX=0;entryY=1;entryDx=0;entryDy=0;" edge="1" parent="1" source="Wq-1Q248FEYo-H4DawHo-51" target="Wq-1Q248FEYo-H4DawHo-42">
          <mxGeometry relative="1" as="geometry" />
        </mxCell>
        <mxCell id="Wq-1Q248FEYo-H4DawHo-83" value="" style="rounded=0;whiteSpace=wrap;html=1;fillColor=#dae8fc;strokeColor=#6c8ebf;" vertex="1" parent="1">
          <mxGeometry x="240" y="120" width="160" height="280" as="geometry" />
        </mxCell>
        <mxCell id="Wq-1Q248FEYo-H4DawHo-84" style="edgeStyle=orthogonalEdgeStyle;rounded=0;orthogonalLoop=1;jettySize=auto;html=1;" edge="1" parent="1" source="Wq-1Q248FEYo-H4DawHo-85" target="Wq-1Q248FEYo-H4DawHo-98">
          <mxGeometry relative="1" as="geometry" />
        </mxCell>
        <mxCell id="Wq-1Q248FEYo-H4DawHo-85" value="" style="rounded=0;whiteSpace=wrap;html=1;fillColor=#dae8fc;strokeColor=#6c8ebf;" vertex="1" parent="1">
          <mxGeometry x="255" y="280" width="130" height="60" as="geometry" />
        </mxCell>
        <mxCell id="Wq-1Q248FEYo-H4DawHo-86" style="rounded=0;orthogonalLoop=1;jettySize=auto;html=1;entryX=0.5;entryY=1;entryDx=0;entryDy=0;" edge="1" parent="1" source="Wq-1Q248FEYo-H4DawHo-87" target="Wq-1Q248FEYo-H4DawHo-94">
          <mxGeometry relative="1" as="geometry" />
        </mxCell>
        <mxCell id="Wq-1Q248FEYo-H4DawHo-87" value="" style="ellipse;whiteSpace=wrap;html=1;aspect=fixed;" vertex="1" parent="1">
          <mxGeometry x="340" y="320" width="10" height="10" as="geometry" />
        </mxCell>
        <mxCell id="Wq-1Q248FEYo-H4DawHo-88" style="rounded=0;orthogonalLoop=1;jettySize=auto;html=1;entryX=0.5;entryY=1;entryDx=0;entryDy=0;" edge="1" parent="1" source="Wq-1Q248FEYo-H4DawHo-92" target="Wq-1Q248FEYo-H4DawHo-95">
          <mxGeometry relative="1" as="geometry" />
        </mxCell>
        <mxCell id="Wq-1Q248FEYo-H4DawHo-89" style="rounded=0;orthogonalLoop=1;jettySize=auto;html=1;entryX=0;entryY=1;entryDx=0;entryDy=0;" edge="1" parent="1" source="Wq-1Q248FEYo-H4DawHo-92" target="Wq-1Q248FEYo-H4DawHo-93">
          <mxGeometry relative="1" as="geometry" />
        </mxCell>
        <mxCell id="Wq-1Q248FEYo-H4DawHo-90" style="rounded=0;orthogonalLoop=1;jettySize=auto;html=1;" edge="1" parent="1" source="Wq-1Q248FEYo-H4DawHo-92">
          <mxGeometry relative="1" as="geometry">
            <mxPoint x="340" y="300" as="targetPoint" />
          </mxGeometry>
        </mxCell>
        <mxCell id="Wq-1Q248FEYo-H4DawHo-91" style="rounded=0;orthogonalLoop=1;jettySize=auto;html=1;entryX=0.5;entryY=1;entryDx=0;entryDy=0;" edge="1" parent="1" source="Wq-1Q248FEYo-H4DawHo-92" target="Wq-1Q248FEYo-H4DawHo-96">
          <mxGeometry relative="1" as="geometry" />
        </mxCell>
        <mxCell id="Wq-1Q248FEYo-H4DawHo-92" value="" style="ellipse;whiteSpace=wrap;html=1;aspect=fixed;" vertex="1" parent="1">
          <mxGeometry x="290" y="320" width="10" height="10" as="geometry" />
        </mxCell>
        <mxCell id="Wq-1Q248FEYo-H4DawHo-93" value="" style="ellipse;whiteSpace=wrap;html=1;aspect=fixed;" vertex="1" parent="1">
          <mxGeometry x="355" y="290" width="10" height="10" as="geometry" />
        </mxCell>
        <mxCell id="Wq-1Q248FEYo-H4DawHo-94" value="" style="ellipse;whiteSpace=wrap;html=1;aspect=fixed;" vertex="1" parent="1">
          <mxGeometry x="330" y="290" width="10" height="10" as="geometry" />
        </mxCell>
        <mxCell id="Wq-1Q248FEYo-H4DawHo-95" value="" style="ellipse;whiteSpace=wrap;html=1;aspect=fixed;" vertex="1" parent="1">
          <mxGeometry x="280" y="290" width="10" height="10" as="geometry" />
        </mxCell>
        <mxCell id="Wq-1Q248FEYo-H4DawHo-96" value="" style="ellipse;whiteSpace=wrap;html=1;aspect=fixed;" vertex="1" parent="1">
          <mxGeometry x="310" y="290" width="10" height="10" as="geometry" />
        </mxCell>
        <mxCell id="Wq-1Q248FEYo-H4DawHo-97" style="rounded=0;orthogonalLoop=1;jettySize=auto;html=1;entryX=0.269;entryY=0.333;entryDx=0;entryDy=0;entryPerimeter=0;" edge="1" parent="1" source="Wq-1Q248FEYo-H4DawHo-87" target="Wq-1Q248FEYo-H4DawHo-85">
          <mxGeometry relative="1" as="geometry" />
        </mxCell>
        <mxCell id="Wq-1Q248FEYo-H4DawHo-98" value="" style="rounded=0;whiteSpace=wrap;html=1;fillColor=#dae8fc;strokeColor=#6c8ebf;" vertex="1" parent="1">
          <mxGeometry x="255" y="150" width="130" height="60" as="geometry" />
        </mxCell>
        <mxCell id="Wq-1Q248FEYo-H4DawHo-99" value="" style="ellipse;whiteSpace=wrap;html=1;aspect=fixed;" vertex="1" parent="1">
          <mxGeometry x="275" y="160" width="10" height="10" as="geometry" />
        </mxCell>
        <mxCell id="Wq-1Q248FEYo-H4DawHo-100" value="" style="ellipse;whiteSpace=wrap;html=1;aspect=fixed;" vertex="1" parent="1">
          <mxGeometry x="300" y="160" width="10" height="10" as="geometry" />
        </mxCell>
        <mxCell id="Wq-1Q248FEYo-H4DawHo-101" value="" style="ellipse;whiteSpace=wrap;html=1;aspect=fixed;" vertex="1" parent="1">
          <mxGeometry x="330" y="160" width="10" height="10" as="geometry" />
        </mxCell>
        <mxCell id="Wq-1Q248FEYo-H4DawHo-102" value="" style="ellipse;whiteSpace=wrap;html=1;aspect=fixed;" vertex="1" parent="1">
          <mxGeometry x="355" y="160" width="10" height="10" as="geometry" />
        </mxCell>
        <mxCell id="Wq-1Q248FEYo-H4DawHo-103" style="rounded=0;orthogonalLoop=1;jettySize=auto;html=1;entryX=0.5;entryY=1;entryDx=0;entryDy=0;" edge="1" parent="1" source="Wq-1Q248FEYo-H4DawHo-106" target="Wq-1Q248FEYo-H4DawHo-102">
          <mxGeometry relative="1" as="geometry" />
        </mxCell>
        <mxCell id="Wq-1Q248FEYo-H4DawHo-104" style="rounded=0;orthogonalLoop=1;jettySize=auto;html=1;entryX=0.5;entryY=1;entryDx=0;entryDy=0;" edge="1" parent="1" source="Wq-1Q248FEYo-H4DawHo-106" target="Wq-1Q248FEYo-H4DawHo-101">
          <mxGeometry relative="1" as="geometry" />
        </mxCell>
        <mxCell id="Wq-1Q248FEYo-H4DawHo-105" style="rounded=0;orthogonalLoop=1;jettySize=auto;html=1;entryX=0.5;entryY=1;entryDx=0;entryDy=0;" edge="1" parent="1" source="Wq-1Q248FEYo-H4DawHo-106" target="Wq-1Q248FEYo-H4DawHo-99">
          <mxGeometry relative="1" as="geometry" />
        </mxCell>
        <mxCell id="Wq-1Q248FEYo-H4DawHo-106" value="" style="ellipse;whiteSpace=wrap;html=1;aspect=fixed;" vertex="1" parent="1">
          <mxGeometry x="290" y="190" width="10" height="10" as="geometry" />
        </mxCell>
        <mxCell id="Wq-1Q248FEYo-H4DawHo-107" style="rounded=0;orthogonalLoop=1;jettySize=auto;html=1;entryX=1;entryY=0.5;entryDx=0;entryDy=0;" edge="1" parent="1" source="Wq-1Q248FEYo-H4DawHo-108" target="Wq-1Q248FEYo-H4DawHo-100">
          <mxGeometry relative="1" as="geometry">
            <mxPoint x="310" y="180" as="targetPoint" />
          </mxGeometry>
        </mxCell>
        <mxCell id="Wq-1Q248FEYo-H4DawHo-108" value="" style="ellipse;whiteSpace=wrap;html=1;aspect=fixed;" vertex="1" parent="1">
          <mxGeometry x="340" y="190" width="10" height="10" as="geometry" />
        </mxCell>
        <mxCell id="Wq-1Q248FEYo-H4DawHo-109" style="rounded=0;orthogonalLoop=1;jettySize=auto;html=1;entryX=0;entryY=1;entryDx=0;entryDy=0;" edge="1" parent="1" source="Wq-1Q248FEYo-H4DawHo-108" target="Wq-1Q248FEYo-H4DawHo-99">
          <mxGeometry relative="1" as="geometry" />
        </mxCell>
        <mxCell id="Wq-1Q248FEYo-H4DawHo-110" value="" style="rounded=0;whiteSpace=wrap;html=1;fillColor=#d5e8d4;strokeColor=#82b366;" vertex="1" parent="1">
          <mxGeometry x="440" y="120" width="160" height="280" as="geometry" />
        </mxCell>
        <mxCell id="Wq-1Q248FEYo-H4DawHo-111" style="edgeStyle=orthogonalEdgeStyle;rounded=0;orthogonalLoop=1;jettySize=auto;html=1;" edge="1" parent="1" source="Wq-1Q248FEYo-H4DawHo-112" target="Wq-1Q248FEYo-H4DawHo-125">
          <mxGeometry relative="1" as="geometry" />
        </mxCell>
        <mxCell id="Wq-1Q248FEYo-H4DawHo-112" value="" style="rounded=0;whiteSpace=wrap;html=1;fillColor=#fff2cc;strokeColor=#d6b656;" vertex="1" parent="1">
          <mxGeometry x="455" y="280" width="130" height="60" as="geometry" />
        </mxCell>
        <mxCell id="Wq-1Q248FEYo-H4DawHo-113" style="rounded=0;orthogonalLoop=1;jettySize=auto;html=1;entryX=0.5;entryY=1;entryDx=0;entryDy=0;" edge="1" parent="1" source="Wq-1Q248FEYo-H4DawHo-114" target="Wq-1Q248FEYo-H4DawHo-121">
          <mxGeometry relative="1" as="geometry" />
        </mxCell>
        <mxCell id="Wq-1Q248FEYo-H4DawHo-114" value="" style="ellipse;whiteSpace=wrap;html=1;aspect=fixed;" vertex="1" parent="1">
          <mxGeometry x="540" y="320" width="10" height="10" as="geometry" />
        </mxCell>
        <mxCell id="Wq-1Q248FEYo-H4DawHo-115" style="rounded=0;orthogonalLoop=1;jettySize=auto;html=1;entryX=0.5;entryY=1;entryDx=0;entryDy=0;" edge="1" parent="1" source="Wq-1Q248FEYo-H4DawHo-119" target="Wq-1Q248FEYo-H4DawHo-122">
          <mxGeometry relative="1" as="geometry" />
        </mxCell>
        <mxCell id="Wq-1Q248FEYo-H4DawHo-116" style="rounded=0;orthogonalLoop=1;jettySize=auto;html=1;entryX=0;entryY=1;entryDx=0;entryDy=0;" edge="1" parent="1" source="Wq-1Q248FEYo-H4DawHo-119" target="Wq-1Q248FEYo-H4DawHo-120">
          <mxGeometry relative="1" as="geometry" />
        </mxCell>
        <mxCell id="Wq-1Q248FEYo-H4DawHo-117" style="rounded=0;orthogonalLoop=1;jettySize=auto;html=1;" edge="1" parent="1" source="Wq-1Q248FEYo-H4DawHo-119">
          <mxGeometry relative="1" as="geometry">
            <mxPoint x="540" y="300" as="targetPoint" />
          </mxGeometry>
        </mxCell>
        <mxCell id="Wq-1Q248FEYo-H4DawHo-118" style="rounded=0;orthogonalLoop=1;jettySize=auto;html=1;entryX=0.5;entryY=1;entryDx=0;entryDy=0;" edge="1" parent="1" source="Wq-1Q248FEYo-H4DawHo-119" target="Wq-1Q248FEYo-H4DawHo-123">
          <mxGeometry relative="1" as="geometry" />
        </mxCell>
        <mxCell id="Wq-1Q248FEYo-H4DawHo-119" value="" style="ellipse;whiteSpace=wrap;html=1;aspect=fixed;" vertex="1" parent="1">
          <mxGeometry x="490" y="320" width="10" height="10" as="geometry" />
        </mxCell>
        <mxCell id="Wq-1Q248FEYo-H4DawHo-120" value="" style="ellipse;whiteSpace=wrap;html=1;aspect=fixed;" vertex="1" parent="1">
          <mxGeometry x="555" y="290" width="10" height="10" as="geometry" />
        </mxCell>
        <mxCell id="Wq-1Q248FEYo-H4DawHo-121" value="" style="ellipse;whiteSpace=wrap;html=1;aspect=fixed;" vertex="1" parent="1">
          <mxGeometry x="530" y="290" width="10" height="10" as="geometry" />
        </mxCell>
        <mxCell id="Wq-1Q248FEYo-H4DawHo-122" value="" style="ellipse;whiteSpace=wrap;html=1;aspect=fixed;" vertex="1" parent="1">
          <mxGeometry x="480" y="290" width="10" height="10" as="geometry" />
        </mxCell>
        <mxCell id="Wq-1Q248FEYo-H4DawHo-123" value="" style="ellipse;whiteSpace=wrap;html=1;aspect=fixed;" vertex="1" parent="1">
          <mxGeometry x="510" y="290" width="10" height="10" as="geometry" />
        </mxCell>
        <mxCell id="Wq-1Q248FEYo-H4DawHo-124" style="rounded=0;orthogonalLoop=1;jettySize=auto;html=1;entryX=0.269;entryY=0.333;entryDx=0;entryDy=0;entryPerimeter=0;" edge="1" parent="1" source="Wq-1Q248FEYo-H4DawHo-114" target="Wq-1Q248FEYo-H4DawHo-112">
          <mxGeometry relative="1" as="geometry" />
        </mxCell>
        <mxCell id="Wq-1Q248FEYo-H4DawHo-125" value="" style="rounded=0;whiteSpace=wrap;html=1;fillColor=#fff2cc;strokeColor=#d6b656;" vertex="1" parent="1">
          <mxGeometry x="455" y="150" width="130" height="60" as="geometry" />
        </mxCell>
        <mxCell id="Wq-1Q248FEYo-H4DawHo-126" value="" style="ellipse;whiteSpace=wrap;html=1;aspect=fixed;" vertex="1" parent="1">
          <mxGeometry x="475" y="160" width="10" height="10" as="geometry" />
        </mxCell>
        <mxCell id="Wq-1Q248FEYo-H4DawHo-127" value="" style="ellipse;whiteSpace=wrap;html=1;aspect=fixed;" vertex="1" parent="1">
          <mxGeometry x="500" y="160" width="10" height="10" as="geometry" />
        </mxCell>
        <mxCell id="Wq-1Q248FEYo-H4DawHo-128" value="" style="ellipse;whiteSpace=wrap;html=1;aspect=fixed;" vertex="1" parent="1">
          <mxGeometry x="530" y="160" width="10" height="10" as="geometry" />
        </mxCell>
        <mxCell id="Wq-1Q248FEYo-H4DawHo-129" value="" style="ellipse;whiteSpace=wrap;html=1;aspect=fixed;" vertex="1" parent="1">
          <mxGeometry x="555" y="160" width="10" height="10" as="geometry" />
        </mxCell>
        <mxCell id="Wq-1Q248FEYo-H4DawHo-130" style="rounded=0;orthogonalLoop=1;jettySize=auto;html=1;entryX=0.5;entryY=1;entryDx=0;entryDy=0;" edge="1" parent="1" source="Wq-1Q248FEYo-H4DawHo-133" target="Wq-1Q248FEYo-H4DawHo-129">
          <mxGeometry relative="1" as="geometry" />
        </mxCell>
        <mxCell id="Wq-1Q248FEYo-H4DawHo-131" style="rounded=0;orthogonalLoop=1;jettySize=auto;html=1;entryX=0.5;entryY=1;entryDx=0;entryDy=0;" edge="1" parent="1" source="Wq-1Q248FEYo-H4DawHo-133" target="Wq-1Q248FEYo-H4DawHo-128">
          <mxGeometry relative="1" as="geometry" />
        </mxCell>
        <mxCell id="Wq-1Q248FEYo-H4DawHo-132" style="rounded=0;orthogonalLoop=1;jettySize=auto;html=1;entryX=0.5;entryY=1;entryDx=0;entryDy=0;" edge="1" parent="1" source="Wq-1Q248FEYo-H4DawHo-133" target="Wq-1Q248FEYo-H4DawHo-126">
          <mxGeometry relative="1" as="geometry" />
        </mxCell>
        <mxCell id="Wq-1Q248FEYo-H4DawHo-133" value="" style="ellipse;whiteSpace=wrap;html=1;aspect=fixed;" vertex="1" parent="1">
          <mxGeometry x="490" y="190" width="10" height="10" as="geometry" />
        </mxCell>
        <mxCell id="Wq-1Q248FEYo-H4DawHo-134" style="rounded=0;orthogonalLoop=1;jettySize=auto;html=1;entryX=1;entryY=0.5;entryDx=0;entryDy=0;" edge="1" parent="1" source="Wq-1Q248FEYo-H4DawHo-135" target="Wq-1Q248FEYo-H4DawHo-127">
          <mxGeometry relative="1" as="geometry">
            <mxPoint x="510" y="180" as="targetPoint" />
          </mxGeometry>
        </mxCell>
        <mxCell id="Wq-1Q248FEYo-H4DawHo-135" value="" style="ellipse;whiteSpace=wrap;html=1;aspect=fixed;" vertex="1" parent="1">
          <mxGeometry x="540" y="190" width="10" height="10" as="geometry" />
        </mxCell>
        <mxCell id="Wq-1Q248FEYo-H4DawHo-136" style="rounded=0;orthogonalLoop=1;jettySize=auto;html=1;entryX=0;entryY=1;entryDx=0;entryDy=0;" edge="1" parent="1" source="Wq-1Q248FEYo-H4DawHo-135" target="Wq-1Q248FEYo-H4DawHo-126">
          <mxGeometry relative="1" as="geometry" />
        </mxCell>
        <mxCell id="Wq-1Q248FEYo-H4DawHo-140" value="Task Group" style="text;html=1;align=center;verticalAlign=middle;resizable=0;points=[];autosize=1;strokeColor=none;fillColor=none;" vertex="1" parent="1">
          <mxGeometry x="-80" y="470" width="80" height="30" as="geometry" />
        </mxCell>
        <mxCell id="Wq-1Q248FEYo-H4DawHo-142" value="Task Sequence" style="text;html=1;align=center;verticalAlign=middle;resizable=0;points=[];autosize=1;strokeColor=none;fillColor=none;" vertex="1" parent="1">
          <mxGeometry x="-80" y="700" width="110" height="30" as="geometry" />
        </mxCell>
        <mxCell id="Wq-1Q248FEYo-H4DawHo-147" value="Network" style="text;html=1;align=center;verticalAlign=middle;resizable=0;points=[];autosize=1;strokeColor=none;fillColor=none;" vertex="1" parent="1">
          <mxGeometry x="-80" y="265" width="70" height="30" as="geometry" />
        </mxCell>
      </root>
    </mxGraphModel>
  </diagram>
</mxfile>
